<?xml version="1.0" encoding="UTF-8" standalone="no"?>
<!-- Created with Inkscape (http://www.inkscape.org/) -->

<svg
   width="512"
   height="512"
   viewBox="0 0 135.46667 135.46667"
   version="1.1"
   id="svg5"
   inkscape:version="1.2.2 (b0a8486541, 2022-12-01)"
   sodipodi:docname="favicon.svg"
   xml:space="preserve"
   xmlns:inkscape="http://www.inkscape.org/namespaces/inkscape"
   xmlns:sodipodi="http://sodipodi.sourceforge.net/DTD/sodipodi-0.dtd"
   xmlns="http://www.w3.org/2000/svg"
   xmlns:svg="http://www.w3.org/2000/svg"><sodipodi:namedview
     id="namedview7"
     pagecolor="#ffffff"
     bordercolor="#000000"
     borderopacity="0.25"
     inkscape:showpageshadow="2"
     inkscape:pageopacity="0.0"
     inkscape:pagecheckerboard="true"
     inkscape:deskcolor="#d1d1d1"
     inkscape:document-units="px"
     showgrid="false"
     inkscape:zoom="0.32087254"
     inkscape:cx="166.73287"
     inkscape:cy="794.70807"
     inkscape:window-width="1920"
     inkscape:window-height="1131"
     inkscape:window-x="0"
     inkscape:window-y="0"
     inkscape:window-maximized="1"
     inkscape:current-layer="svg5"
     showguides="false" /><defs
     id="defs2"><clipPath
       clipPathUnits="userSpaceOnUse"
       id="clipPath16302"><circle
         style="fill:#0273aa;fill-opacity:1;stroke:none;stroke-width:2.13168;stroke-linecap:round;stroke-linejoin:round;stroke-miterlimit:40;stroke-dasharray:none;paint-order:normal"
         id="circle16304"
         cx="420.85474"
         cy="71.167152"
         r="57.454071"
         transform="scale(-1,1)" /></clipPath><clipPath
       clipPathUnits="userSpaceOnUse"
       id="clipPath16302-3"><circle
         style="fill:#0273aa;fill-opacity:1;stroke:none;stroke-width:2.13168;stroke-linecap:round;stroke-linejoin:round;stroke-miterlimit:40;stroke-dasharray:none;paint-order:normal"
         id="circle16304-6"
         cx="420.85474"
         cy="71.167152"
         r="57.454071"
         transform="scale(-1,1)" /></clipPath></defs><g
     id="g6948"
     transform="matrix(2.3958548,0,0,2.3958548,1090.7447,-426.56942)"
     style="stroke-width:0.492063"><g
       id="g33829-7-2"
       transform="matrix(0.50000001,0,0,0.50000001,-215.20999,172.08712)"
       style="stroke:#0273aa;stroke-width:1.76694;stroke-dasharray:none;stroke-opacity:1"><g
         id="g43570-5-7"
         style="stroke:#0273aa;stroke-width:1.78217;stroke-dasharray:none;stroke-opacity:1;paint-order:normal"
         transform="matrix(0.99145508,0,0,0.99145508,-4.0873751,0.11691371)"><circle
           style="fill:#ffffff;fill-opacity:1;stroke:#0273aa;stroke-width:3.56434;stroke-linecap:round;stroke-linejoin:round;stroke-miterlimit:40;stroke-dasharray:none;stroke-opacity:1;paint-order:normal"
           id="path11937-0-35-0"
           cx="423.09241"
           cy="68.929489"
           r="55.247246"
           transform="scale(-1,1)" /></g></g><g
       id="g16795-61-6"
       transform="matrix(0.76389306,0,0,0.76389306,-108.95252,127.46204)"
       inkscape:label="acorn"
       style="stroke-width:0.546462;stroke-dasharray:none"><path
         style="fill:#0273aa;fill-opacity:1;stroke:none;stroke-width:0.546462;stroke-linecap:round;stroke-linejoin:round;stroke-miterlimit:40;stroke-dasharray:none;paint-order:normal"
         d="m -398.79932,116.98984 c 2.14816,-3.18843 5.3282,-9.00453 6.86159,-16.2357 -1.68801,-8.452686 -5.41474,-9.528969 -12.67201,-13.175064 l -6.77667,-2.1655 c -0.59411,-4.916754 3.66346,-6.007316 1.95818,-7.562799 -0.60935,-0.60799 -0.85772,-1.152153 -2.92807,-0.747044 -0.68887,2.828557 -1.5891,4.882655 -1.38413,7.856743 -10.88291,-0.324825 -19.86773,1.21596 -23.75555,10.917323 l 0.59462,6.157521 c 0.40774,4.06454 0.90942,8.36039 1.19673,10.7182 2.51007,9.53776 7.2756,12.84946 15.14952,17.9473 10.80658,-1.60382 18.0178,-8.23239 21.75579,-13.71098 z"
         id="path11886-3-5-8-2"
         sodipodi:nodetypes="cccccccccccc" /><path
         style="display:inline;fill:#01557e;fill-opacity:1;stroke:none;stroke-width:0.546462;stroke-linecap:round;stroke-linejoin:round;stroke-miterlimit:40;stroke-dasharray:none;paint-order:normal"
         d="m -437.24943,98.587152 c 15.47059,5.160838 28.853,6.210908 44.45035,5.528858 l -0.33269,1.00136 c -2.84453,8.48885 -7.11438,16.19984 -14.78081,20.77251 -4.22299,2.87641 -8.95937,4.24265 -12.64118,4.80585 4.90186,-1.9411 6.28154,-3.13013 9.44127,-5.62107 7.30314,-5.75735 10.53897,-13.79201 -7.2632,-17.54634 -2.04827,-0.7546 -6.97065,-1.79557 -8.95696,-2.4842 -3.78691,-1.31289 -5.87451,-2.69569 -8.49494,-4.19919 -0.64857,-0.55614 -1.05123,-1.499972 -1.42184,-2.257778 z"
         id="path14904-79-9"
         sodipodi:nodetypes="cccccscscc" /><path
         style="fill:#01557e;fill-opacity:1;stroke-width:0.546462;stroke-linecap:round;stroke-linejoin:round;stroke-miterlimit:40;stroke-dasharray:none"
         d="m -412.38484,74.540497 c 1.04648,1.02564 2.03773,1.53722 3.32802,1.217522 0.0656,0.210395 0.0231,0.418915 -0.0326,0.627204 -1.5334,2.409182 -2.45327,4.552421 -2.21329,7.284672 l 0.16083,1.055961 c -0.9361,0.0984 -1.87578,0.258567 -2.4535,-0.468121 0.75107,0.18109 0.90263,0.01389 1.42464,-0.485892 -0.17483,-2.661716 0.30288,-4.511654 1.49152,-6.770675 -0.34469,-1.051553 -1.02053,-1.564634 -1.70561,-2.460671 z"
         id="path567-1"
         sodipodi:nodetypes="ccccccccc"
         transform="translate(-1.6924549e-5,2.6458344)" /></g></g></svg>
